#!OML:ASF I:\Actors\actors\Patient Classification 2\Patient 1\Session 1\actor1.ASF
:FULLY-SPECIFIED
:DEGREES
607
root 0.504446 17.609 3.51931 33.6279 -34.2892 -18.8439
lowerback 32.6903 -1.0406 -3.41299
upperback 6.98774 -2.92422 -1.78833
thorax -9.00353 -1.42209 1.01659
lowerneck -13.5644 12.0476 15.1611
upperneck 16.8738 15.4969 -11.8684
head 9.72339 7.1061 -4.38336
rclavicle -9.54166e-015 1.27222e-014
rhumerus -55.8342 39.8056 -97.9352
rradius 106.632
rwrist 6.86217
rhand -17.1498 -65.8544
rfingers 7.12502
rthumb 9.09076 -264.362
lclavicle -9.54166e-015 1.27222e-014
lhumerus -7.34691 -0.723772 85.6495
lradius 94.0385
lwrist 84.8727
lhand -46.322 -21.9134
lfingers 7.12502
lthumb -19.0553 7.17317
rfemur -21.7772 13.9669 22.6538
rtibia -20.6776
rfoot 15.2152 -6.97067
rtoes 2.98295
lfemur 8.9221 22.8625 -7.70134
ltibia -50.4368
lfoot 21.6809 23.0618
ltoes -8.37326
608
root 0.522368 17.587 3.50877 34.4176 -34.3588 -19.4235
lowerback 32.8857 -0.952089 -3.45121
upperback 6.99579 -2.82495 -1.66633
thorax -9.06567 -1.37623 1.13382
lowerneck -13.6321 12.1456 15.1282
upperneck 16.4526 15.6287 -12.0178
head 9.619 7.15702 -4.40185
rclavicle 9.54166e-015 1.27222e-014
rhumerus -55.2837 40.3949 -98.1119
rradius 106.199
rwrist 6.41957
rhand -17.5481 -65.6665
rfingers 7.12502
rthumb 8.70644 -264.533
lclavicle 9.54166e-015 1.27222e-014
lhumerus -6.9482 -0.192068 85.1483
lradius 94.0201
lwrist 85.0978
lhand -46.3373 -22.0564
lfingers 7.12502
lthumb -19.0701 7.02871
rfemur -22.3763 13.5058 23.4084
rtibia -20.5531
rfoot 15.8609 -6.3971
rtoes 3.21635
lfemur 8.68478 23.3353 -7.5053
ltibia -51.0363
lfoot 22.193 23.1101
ltoes -8.28545
609
root 0.536649 17.5673 3.5029 35.1712 -34.5568 -20.0796
lowerback 33.1119 -0.743594 -3.54939
upperback 7.01292 -2.60262 -1.56482
thorax -9.13237 -1.27383 1.21669
lowerneck -13.6821 12.1837 15.2105
upperneck 16.0256 15.6635 -12.2116
head 9.51002 7.16745 -4.47129
rclavicle 1.59028e-014 7.31528e-014
rhumerus -54.0496 40.7292 -98.4132
rradius 105.236
rwrist 6.99176
rhand -16.7171 -66.3842
rfingers 7.12502
rthumb 9.50827 -263.85
lclavicle 1.59028e-014 7.31528e-014
lhumerus -6.3704 0.200042 84.4904
lradius 93.8069
lwrist 85.3066
lhand -46.4992 -21.7248
lfingers 7.12502
lthumb -19.2258 7.34488
rfemur -22.8612 13.1061 24.236
rtibia -20.4196
rfoot 16.5991 -5.71648
rtoes 3.31143
lfemur 8.60997 23.9091 -7.27891
ltibia -51.628
lfoot 22.6275 23.1751
ltoes -8.39912
610
root 0.549729 17.5513 3.49171 35.8704 -34.7162 -20.7271
lowerback 33.3946 -0.494103 -3.69979
upperback 7.0338 -2.34488 -1.41408
thorax -9.21437 -1.15459 1.36621
lowerneck -13.9198 12.2429 15.215
upperneck 15.8086 15.7094 -12.2758
head 9.49065 7.17887 -4.47356
rclavicle 5.08889e-014 6.67916e-014
rhumerus -52.3727 41.1558 -98.9987
rradius 103.592
rwrist 7.87193
rhand -17.1391 -66.7385
rfingers 7.12502
rthumb 9.1011 -263.478
lclavicle 5.08889e-014 6.67916e-014
lhumerus -5.54709 0.483241 83.6065
lradius 93.3242
lwrist 85.5593
lhand -46.6545 -21.3674
lfingers 7.12502
lthumb -19.3751 7.6873
rfemur -23.3466 12.6475 25.1439
rtibia -20.1677
rfoot 17.3339 -4.95634
rtoes 3.44917
lfemur 8.56547 24.5205 -7.03621
ltibia -52.2683
lfoot 23.126 23.2215
ltoes -8.50856
611
root 0.570852 17.5298 3.46794 36.8207 -34.4263 -21.5832
lowerback 33.5337 -0.450625 -3.37815
upperback 7.03485 -2.1581 -1.12271
thorax -9.276 -1.07535 1.43735
lowerneck -14.2271 12.336 15.2557
upperneck 15.6514 15.8145 -12.4531
head 9.52745 7.20551 -4.50625
rclavicle 5.725e-014 -1.59028e-014
rhumerus -50.5152 42.0376 -99.2783
rradius 101.84
rwrist 9.46756
rhand -17.3453 -65.271
rfingers 7.12502
rthumb 8.9021 -264.937
lclavicle 5.725e-014 -1.59028e-014
lhumerus -4.34527 0.801737 82.4966
lradius 92.4798
lwrist 86.0381
lhand -46.7514 -21.2918
lfingers 7.12502
lthumb -19.4682 7.75359
rfemur -23.9313 11.8943 26.5167
rtibia -20.0438
rfoot 18.1926 -4.17441
rtoes 3.51832
lfemur 8.17983 25.051 -6.49636
ltibia -52.8315
lfoot 23.7234 23.2274
ltoes -8.33266
